<svg id="Layer_1" data-name="Layer 1" xmlns="http://www.w3.org/2000/svg" viewBox="0 0 110 144"><defs><style>.cls-1{fill:#ccc;}</style></defs><title>Artboard 1</title><path class="cls-1" d="M69,45H41V70H17V98H41v24H69V98H93V70H69ZM84,89H60v24H50V89H26V79H50V54H60V79H84Z"/><path class="cls-1" d="M97,11H88V0H22V11H13A13,13,0,0,0,0,24V131a13,13,0,0,0,13,13H97a13,13,0,0,0,13-13V24A13,13,0,0,0,97,11Zm4,120a4,4,0,0,1-4,4H13a4,4,0,0,1-4-4V24a4,4,0,0,1,4-4h9V36H88V20h9a4,4,0,0,1,4,4ZM31,11V9H79V27H31V11Z"/></svg>