<svg id="Layer_1" data-name="Layer 1" xmlns="http://www.w3.org/2000/svg" viewBox="0 0 20 20"><defs><style>.cls-1{fill:#221e1b;fill-rule:evenodd;}</style></defs><title>github</title><path class="cls-1" d="M10,.4A10,10,0,0,0,6.8,19.9c.5.1.7-.2.7-.5s0-.9,0-1.7c-2.8.6-3.4-1.3-3.4-1.3A2.6,2.6,0,0,0,3,14.9c-.9-.6.1-.6.1-.6a2.1,2.1,0,0,1,1.5,1,2.1,2.1,0,0,0,2.9.8,2.1,2.1,0,0,1,.6-1.3C6,14.6,3.6,13.7,3.6,9.9a3.9,3.9,0,0,1,1-2.7,3.6,3.6,0,0,1,.1-2.6s.8-.3,2.7,1a9.5,9.5,0,0,1,5,0c1.9-1.3,2.7-1,2.7-1a3.6,3.6,0,0,1,.1,2.6,3.9,3.9,0,0,1,1,2.7c0,3.8-2.3,4.7-4.6,4.9a2.4,2.4,0,0,1,.7,1.9c0,1.3,0,2.4,0,2.7s.2.6.7.5A10,10,0,0,0,10,.4Z"/></svg>